<svg xmlns="http://www.w3.org/2000/svg" xmlns:xlink="http://www.w3.org/1999/xlink"><symbol id="icon-close" viewBox="0 0 21 21"><path d="M.88 19.39a1 1 0 010-1.414L17.976.882a1 1 0 011.414 0l.812.812a1 1 0 010 1.414L3.107 20.203a1 1 0 01-1.414 0L.88 19.39z"/><path d="M19.387 20.203a1 1 0 01-1.414 0L.879 3.108a1 1 0 010-1.414L1.69.882a1 1 0 011.414 0L20.2 17.976a1 1 0 010 1.414l-.813.813z"/></symbol><symbol id="icon-play" viewBox="0 0 18 21"><path d="M16.27 7.978c1.835 1.181 1.835 3.863 0 5.044L5.313 20.08C3.315 21.366.688 19.933.688 17.558V3.443C.688 1.068 3.315-.365 5.312.92L16.27 7.978z"/></symbol> <view id="icon-close-view-blue" viewBox="0 0 21 21"/><view id="icon-close-view-dark" viewBox="0 31 21 21"/><view id="icon-close-view-white" viewBox="0 62 21 21"/><view id="icon-play-view-blue" viewBox="0 93 18 21"/><view id="icon-play-view-dark" viewBox="0 124 18 21"/><view id="icon-play-view-white" viewBox="0 155 18 21"/> <use xlink:href="#icon-close" x="0" y="0" width="21" height="21" style="fill:#638bf5"/><use xlink:href="#icon-close" x="0" y="31" width="21" height="21" style="fill:#46557b"/><use xlink:href="#icon-close" x="0" y="62" width="21" height="21" style="fill:#ffffff"/><use xlink:href="#icon-play" x="0" y="93" width="18" height="21" style="fill:#638bf5"/><use xlink:href="#icon-play" x="0" y="124" width="18" height="21" style="fill:#46557b"/><use xlink:href="#icon-play" x="0" y="155" width="18" height="21" style="fill:#ffffff"/></svg>