<svg xmlns="http://www.w3.org/2000/svg" xmlns:xlink="http://www.w3.org/1999/xlink"><symbol id="icon-arr-down" viewBox="0 0 16 9"><path d="M8.489 7.489a.707.707 0 01-1 1L.5 1.5a.707.707 0 011-1L8.49 7.49z"/><path d="M14.5.5a.707.707 0 011 1L8.505 8.495a.707.707 0 01-1-1L14.5.5z"/></symbol><symbol id="icon-arr-left" viewBox="0 0 12 20"><path d="M.727 9.428a.952.952 0 101.347 1.347l8.754-8.755A.952.952 0 109.481.673L.727 9.428z"/><path d="M9.481 19.53a.952.952 0 001.347-1.347L2.074 9.428a.952.952 0 00-1.347 1.347L9.48 19.53z"/></symbol><symbol id="icon-arr-right" viewBox="0 0 12 20"><path d="M11.273 9.428a.952.952 0 01-1.347 1.347L1.172 2.02A.952.952 0 112.519.673l8.754 8.755z"/><path d="M2.519 19.53a.952.952 0 01-1.347-1.347l8.754-8.755a.952.952 0 011.347 1.347L2.52 19.53z"/></symbol><symbol id="icon-arr-up" viewBox="0 0 16 9"><path d="M7.511 1.506a.707.707 0 011-1L15.5 7.495a.707.707 0 11-1 1L7.51 1.505z"/><path d="M1.5 8.495a.707.707 0 01-1-1L7.495.5a.707.707 0 011 1L1.5 8.495z"/></symbol><symbol id="icon-close" viewBox="0 0 20 20"><path d="M19.374 18.125a.884.884 0 11-1.25 1.25l-17.5-17.5a.884.884 0 011.25-1.25l17.5 17.5z"/><path d="M18.124.626a.884.884 0 011.25 1.25l-17.5 17.5a.884.884 0 11-1.25-1.25l17.5-17.5z"/></symbol><symbol id="icon-play" viewBox="0 0 18 21"><path d="M16.27 7.978c1.835 1.181 1.835 3.863 0 5.044L5.313 20.08C3.315 21.366.688 19.933.688 17.558V3.443C.688 1.068 3.315-.365 5.312.92L16.27 7.978z"/></symbol> <view id="icon-arr-down-view-red" viewBox="0 0 16 9" preserveAspectRatio="none"/><view id="icon-arr-down-view-dark" viewBox="0 19 16 9" preserveAspectRatio="none"/><view id="icon-arr-down-view-white" viewBox="0 38 16 9" preserveAspectRatio="none"/><view id="icon-arr-left-view-red" viewBox="0 57 12 20" preserveAspectRatio="none"/><view id="icon-arr-left-view-dark" viewBox="0 87 12 20" preserveAspectRatio="none"/><view id="icon-arr-left-view-white" viewBox="0 117 12 20" preserveAspectRatio="none"/><view id="icon-arr-right-view-red" viewBox="0 147 12 20" preserveAspectRatio="none"/><view id="icon-arr-right-view-dark" viewBox="0 177 12 20" preserveAspectRatio="none"/><view id="icon-arr-right-view-white" viewBox="0 207 12 20" preserveAspectRatio="none"/><view id="icon-arr-up-view-red" viewBox="0 237 16 9" preserveAspectRatio="none"/><view id="icon-arr-up-view-dark" viewBox="0 256 16 9" preserveAspectRatio="none"/><view id="icon-arr-up-view-white" viewBox="0 275 16 9" preserveAspectRatio="none"/><view id="icon-close-view-red" viewBox="0 294 20 20" preserveAspectRatio="none"/><view id="icon-close-view-dark" viewBox="0 324 20 20" preserveAspectRatio="none"/><view id="icon-close-view-white" viewBox="0 354 20 20" preserveAspectRatio="none"/><view id="icon-play-view-red" viewBox="0 384 18 21" preserveAspectRatio="none"/><view id="icon-play-view-dark" viewBox="0 415 18 21" preserveAspectRatio="none"/><view id="icon-play-view-white" viewBox="0 446 18 21" preserveAspectRatio="none"/> <use xlink:href="#icon-arr-down" x="0" y="0" width="16" height="9" style="fill:#eb5757"/><use xlink:href="#icon-arr-down" x="0" y="19" width="16" height="9" style="fill:#5a5a5a"/><use xlink:href="#icon-arr-down" x="0" y="38" width="16" height="9" style="fill:#ffffff"/><use xlink:href="#icon-arr-left" x="0" y="57" width="12" height="20" style="fill:#eb5757"/><use xlink:href="#icon-arr-left" x="0" y="87" width="12" height="20" style="fill:#5a5a5a"/><use xlink:href="#icon-arr-left" x="0" y="117" width="12" height="20" style="fill:#ffffff"/><use xlink:href="#icon-arr-right" x="0" y="147" width="12" height="20" style="fill:#eb5757"/><use xlink:href="#icon-arr-right" x="0" y="177" width="12" height="20" style="fill:#5a5a5a"/><use xlink:href="#icon-arr-right" x="0" y="207" width="12" height="20" style="fill:#ffffff"/><use xlink:href="#icon-arr-up" x="0" y="237" width="16" height="9" style="fill:#eb5757"/><use xlink:href="#icon-arr-up" x="0" y="256" width="16" height="9" style="fill:#5a5a5a"/><use xlink:href="#icon-arr-up" x="0" y="275" width="16" height="9" style="fill:#ffffff"/><use xlink:href="#icon-close" x="0" y="294" width="20" height="20" style="fill:#eb5757"/><use xlink:href="#icon-close" x="0" y="324" width="20" height="20" style="fill:#5a5a5a"/><use xlink:href="#icon-close" x="0" y="354" width="20" height="20" style="fill:#ffffff"/><use xlink:href="#icon-play" x="0" y="384" width="18" height="21" style="fill:#eb5757"/><use xlink:href="#icon-play" x="0" y="415" width="18" height="21" style="fill:#5a5a5a"/><use xlink:href="#icon-play" x="0" y="446" width="18" height="21" style="fill:#ffffff"/></svg>