<svg xmlns="http://www.w3.org/2000/svg" xmlns:xlink="http://www.w3.org/1999/xlink"><symbol id="icon-arr-left" viewBox="0 0 17 28"><path d="M15.747 24.158c.784.767.784 1.917 0 2.684-.392.383-.783.575-1.37.575-.588 0-.98-.192-1.372-.575l-11.75-11.5c-.783-.767-.783-1.917 0-2.684l11.75-11.5c.784-.766 1.959-.766 2.742 0 .784.767.784 1.917 0 2.684L5.368 14l10.38 10.158z"/></symbol><symbol id="icon-arr-right" viewBox="0 0 17 28"><path d="M15.747 15.342l-11.75 11.5c-.392.383-.783.575-1.37.575-.588 0-.98-.192-1.372-.575-.783-.767-.783-1.917 0-2.684L11.635 14 1.255 3.842c-.783-.767-.783-1.917 0-2.684.784-.766 1.959-.766 2.742 0l11.75 11.5c.784.767.784 1.917 0 2.684z"/></symbol><symbol id="icon-close" viewBox="0 0 21 21"><path d="M.88 19.39a1 1 0 010-1.414L17.976.882a1 1 0 011.414 0l.812.812a1 1 0 010 1.414L3.107 20.203a1 1 0 01-1.414 0L.88 19.39z"/><path d="M19.387 20.203a1 1 0 01-1.414 0L.879 3.108a1 1 0 010-1.414L1.69.882a1 1 0 011.414 0L20.2 17.976a1 1 0 010 1.414l-.813.813z"/></symbol><symbol id="icon-play" viewBox="0 0 18 21"><path d="M16.27 7.978c1.835 1.181 1.835 3.863 0 5.044L5.313 20.08C3.315 21.366.688 19.933.688 17.558V3.443C.688 1.068 3.315-.365 5.312.92L16.27 7.978z"/></symbol> <view id="icon-arr-left-view-blue" viewBox="0 0 17 28"/><view id="icon-arr-left-view-dark" viewBox="0 38 17 28"/><view id="icon-arr-left-view-white" viewBox="0 76 17 28"/><view id="icon-arr-right-view-blue" viewBox="0 114 17 28"/><view id="icon-arr-right-view-dark" viewBox="0 152 17 28"/><view id="icon-arr-right-view-white" viewBox="0 190 17 28"/><view id="icon-close-view-blue" viewBox="0 228 21 21"/><view id="icon-close-view-dark" viewBox="0 259 21 21"/><view id="icon-close-view-white" viewBox="0 290 21 21"/><view id="icon-play-view-blue" viewBox="0 321 18 21"/><view id="icon-play-view-dark" viewBox="0 352 18 21"/><view id="icon-play-view-white" viewBox="0 383 18 21"/> <use xlink:href="#icon-arr-left" x="0" y="0" width="17" height="28" style="fill:#638bf5"/><use xlink:href="#icon-arr-left" x="0" y="38" width="17" height="28" style="fill:#46557b"/><use xlink:href="#icon-arr-left" x="0" y="76" width="17" height="28" style="fill:#ffffff"/><use xlink:href="#icon-arr-right" x="0" y="114" width="17" height="28" style="fill:#638bf5"/><use xlink:href="#icon-arr-right" x="0" y="152" width="17" height="28" style="fill:#46557b"/><use xlink:href="#icon-arr-right" x="0" y="190" width="17" height="28" style="fill:#ffffff"/><use xlink:href="#icon-close" x="0" y="228" width="21" height="21" style="fill:#638bf5"/><use xlink:href="#icon-close" x="0" y="259" width="21" height="21" style="fill:#46557b"/><use xlink:href="#icon-close" x="0" y="290" width="21" height="21" style="fill:#ffffff"/><use xlink:href="#icon-play" x="0" y="321" width="18" height="21" style="fill:#638bf5"/><use xlink:href="#icon-play" x="0" y="352" width="18" height="21" style="fill:#46557b"/><use xlink:href="#icon-play" x="0" y="383" width="18" height="21" style="fill:#ffffff"/></svg>